# xmcd CD database file
#
# Track frame offsets:
#	150
#	21847
#	44840
#	68188
#	93940
#	115009
#	135389
#	157656
#	180226
#	199172
#	219291
#	240531
#	264683
#	286447
#	310295
#	332786
#
# Disc length: 4724 seconds
#
# Revision: 0
# Processed by: cddbd v1.5.1PL0 Copyright (c) Steve Scherf et al.
# Submitted via: CDex 1.51
#
DISCID=de127210
DTITLE=Frankie Ruiz - Las 32 Mas Grandes de Frankie Ruiz Disc2
DYEAR=2004
DGENRE=Salsa
TTITLE0=Desnudate Mujer
TTITLE1=Como lo Hacen
TTITLE2=Por Haberte Amado Tanto
TTITLE3=Esta Cobardia
TTITLE4=Para Darte Fuego
TTITLE5=Quiero Llenarte
TTITLE6=Tu Me Vuelves Loco
TTITLE7=Tu Con El
TTITLE8=Ella Tiene que Saber
TTITLE9=Tu Eres
TTITLE10=Deseandote
TTITLE11=Mujer
TTITLE12=Me Acostumbre
TTITLE13=La Rueda Vuelve a Rodar
TTITLE14=Imposible Amor
TTITLE15=Otra Vez
EXTD=YEAR: 2004
EXTT0=
EXTT1=
EXTT2=
EXTT3=
EXTT4=
EXTT5=
EXTT6=
EXTT7=
EXTT8=
EXTT9=
EXTT10=
EXTT11=
EXTT12=
EXTT13=
EXTT14=
EXTT15=
PLAYORDER=
